<svg xmlns="http://www.w3.org/2000/svg" width="144" height="144" viewBox="0 0 144 144">
  <g id="Groupe_69" data-name="Groupe 69" transform="translate(-290 -2588)">
    <rect id="Rectangle_92" data-name="Rectangle 92" width="144" height="144" transform="translate(290 2588)" fill="none"/>
    <g id="Groupe_73" data-name="Groupe 73">
      <path id="Tracé_32" data-name="Tracé 32" d="M61.259,69.032H6.855c-.854,0-3.2.439-3.95,0-1.056-.6-.178-2.016.178-3.95A25.156,25.156,0,0,1,26.425,44.86c7.235-.451,14.553.273,20.756,4.4A26.781,26.781,0,0,1,59.112,71.487c0,1.637,2.657-.617,2.657-1.85A28.18,28.18,0,0,0,51.2,47.8c-6.369-5.088-13.865-6.227-21.776-6.049A30.019,30.019,0,0,0,0,71.487c0,.225.237.6.51.6H59.622C60.927,72.092,62.6,69.032,61.259,69.032Z" transform="translate(304.268 2618.952)" fill="#f5d771"/>
      <path id="Tracé_33" data-name="Tracé 33" d="M41.465,31.1c-.913,17.162-25.927,14.6-25.737-1.328.107-8.3,8.006-13.521,15.786-11.422,6.061,1.625,9.631,7.057,9.951,13.046.095,1.672,2.716-.6,2.657-1.85-.51-9.287-8.587-16.439-18.075-14.493A16.937,16.937,0,0,0,13,31.275,15.039,15.039,0,0,0,29.6,46.2c8.3-.9,14.1-8.243,14.529-16.261C44.217,27.871,41.536,29.817,41.465,31.1Z" transform="translate(306.687 2613.927)" fill="#f5d771"/>
      <path id="Tracé_34" data-name="Tracé 34" d="M50.347,42.97H80.188c1.3,0,2.977-3.06,1.637-3.06H51.984c-1.3,0-2.977,3.06-1.637,3.06Z" transform="translate(313.543 2618.612)" fill="#f5d771"/>
      <path id="Tracé_35" data-name="Tracé 35" d="M79.379,83.657c-4,0-8.516-.629-12.442,0-.783.13-2.052-.51-1.281.581v-.356a7.649,7.649,0,0,1,0-2.372V8.355L63.51,10.81H77.743c1.3,0,2.977-3.06,1.637-3.06H65.147A2.443,2.443,0,0,0,63,10.205V86.112c0,.225.237.6.51.6H77.743C79.047,86.717,80.72,83.657,79.379,83.657Z" transform="translate(315.989 2612.629)" fill="#f5d771"/>
      <path id="Tracé_36" data-name="Tracé 36" d="M74.943,15.446,87.859,2.209l-1.186.368,13.438,13.39,1.483-2.313H96.767a1.91,1.91,0,0,0-1.684,1.921v7.757l1.684-1.921h-13.9a13.853,13.853,0,0,1-2.716,0c-1.032-.237-.083.878-.261-.451a50.5,50.5,0,0,1,0-6.832c0-.19-.19-.474-.4-.474L75.2,13.489c-1.02,0-2.372,2.372-1.281,2.372l2.918.119c1.554,0,.842-.652.961.795.19,2.147,0,4.377,0,6.535,0,.178.19.474.4.474H95.438a1.921,1.921,0,0,0,1.684-1.921V14.188L95.438,16.05H100.3c.854,0,2.372-1.494,1.483-2.372L88.322.347c-.332-.32-1,.142-1.186.368L74.184,13.939c-.961.984-.557,2.847.759,1.506Z" transform="translate(317.946 2611.231)" fill="#f5d771"/>
      <path id="Tracé_37" data-name="Tracé 37" d="M88.739,18.919H84.481l.451.546V16.109a5.859,5.859,0,0,0,0-1.577c0-.166-1.186.795-.463.949a5.93,5.93,0,0,0,1.186,0c.593,0,1.067,0,1.186.676a7.993,7.993,0,0,1,0,1.506v3.463c0,.771.925.534,1.328.273a2.372,2.372,0,0,0,1.056-1.933v-4.46a2.17,2.17,0,0,0-.807-2.028,4.744,4.744,0,0,0-2.372-.249c-4.317,0-3.4,5.527-3.4,8.4,0,.2.213.546.451.546h4.258a2,2,0,0,0,1.684-1.186C89.107,20.177,89.486,18.919,88.739,18.919Z" transform="translate(319.628 2613.545)" fill="#f5d771"/>
      <path id="Tracé_38" data-name="Tracé 38" d="M74.943,46.455,87.859,33.23l-1.186.356,13.438,13.39,1.483-2.313H96.767a1.91,1.91,0,0,0-1.684,1.921v7.757l1.684-1.921h-13.9a13.853,13.853,0,0,1-2.716,0c-1.032-.225-.083.878-.261-.439a50.678,50.678,0,0,1,0-6.843.522.522,0,0,0-.4-.474L75.2,44.51c-1.02,0-2.372,2.372-1.281,2.372s1.945.083,2.918.107c1.554,0,.842-.652.961.807.19,2.147,0,4.376,0,6.523,0,.178.19.474.4.474H95.438a1.921,1.921,0,0,0,1.684-1.921V45.186l-1.684,1.886H100.3c.854,0,2.372-1.506,1.483-2.372L88.322,31.368c-.332-.332-1,.13-1.186.356L74.184,44.96C73.224,45.933,73.627,47.795,74.943,46.455Z" transform="translate(317.946 2617.001)" fill="#f5d771"/>
      <path id="Tracé_39" data-name="Tracé 39" d="M88.739,49.989H84.481l.451.546V47.119a5.859,5.859,0,0,0,0-1.577c0-.166-1.186.795-.463.949a5.93,5.93,0,0,0,1.186,0c.593,0,1.067,0,1.186.676a7.993,7.993,0,0,1,0,1.506v3.463c0,.771.925.534,1.328.285a2.372,2.372,0,0,0,1.056-1.945v-4.46A2.159,2.159,0,0,0,88.419,44a4.578,4.578,0,0,0-2.372-.261c-4.317,0-3.4,5.539-3.4,8.4,0,.213.213.546.451.546h4.258A2,2,0,0,0,89.035,51.5C89.107,51.175,89.486,49.989,88.739,49.989Z" transform="translate(319.628 2619.314)" fill="#f5d771"/>
      <path id="Tracé_40" data-name="Tracé 40" d="M74.943,77.464,87.859,64.24l-1.186.368L100.111,78l1.483-2.372H96.767a1.91,1.91,0,0,0-1.684,1.981v7.757l1.684-1.933h-13.9a13.046,13.046,0,0,1-2.716,0c-1.032-.225-.083.89-.261-.439a50.5,50.5,0,0,1,0-6.832c0-.19-.19-.474-.4-.474L75.2,75.519c-1.02,0-2.372,2.372-1.281,2.372l2.918.119c1.554,0,.842-.652.961.795.19,2.147,0,4.377,0,6.535,0,.178.19.474.4.474H95.438a1.921,1.921,0,0,0,1.684-1.933v-7.7l-1.684,1.9H100.3c.854,0,2.372-1.494,1.483-2.313L88.322,62.377c-.332-.32-1,.13-1.186.368L74.184,75.969C73.224,76.954,73.627,78.8,74.943,77.464Z" transform="translate(317.946 2622.771)" fill="#f5d771"/>
      <path id="Tracé_41" data-name="Tracé 41" d="M88.744,80.98H84.487l.451.534v-3.38a5.859,5.859,0,0,0,0-1.577c0-.166-1.186.795-.463.937a5.932,5.932,0,0,0,1.186,0c.593,0,1.067,0,1.186.688a7.982,7.982,0,0,1,0,1.506V83.15c0,.759.925.534,1.328.273a2.372,2.372,0,0,0,1.056-1.945V77.03a2.171,2.171,0,0,0-.842-1.981,4.578,4.578,0,0,0-2.372-.261c-4.317,0-3.4,5.539-3.4,8.409,0,.2.213.546.451.546h4.258a2.028,2.028,0,0,0,1.684-1.186C89.112,82.166,89.492,80.98,88.744,80.98Z" transform="translate(319.623 2625.091)" fill="#f5d771"/>
    </g>
  </g>
</svg>
