<svg xmlns="http://www.w3.org/2000/svg" width="144" height="144" viewBox="0 0 144 144">
  <g id="Groupe_70" data-name="Groupe 70" transform="translate(-684 -2593)">
    <path id="Tracé_19" data-name="Tracé 19" d="M18.121,43.97c-4.452,0-8.961.2-13.385,0-1.475,0-.681,1.645-.6-.766s0-4.169,0-6.267V8.606L.794,12.491c4.452,0,8.933-.2,13.385,0,1.475,0,.681-1.673.567.766s0,4.169,0,6.239V47.855c0,2.552,4.169-.964,4.169-2.836V8.606c0-.34-.4-.936-.794-.936H3.346A3.828,3.828,0,0,0,0,11.442V47.8c0,.369.369.964.794.964H15.541C17.583,48.762,20.22,43.97,18.121,43.97Z" transform="translate(720 2636.289)" fill="#6bf2be"/>
    <path id="Tracé_20" data-name="Tracé 20" d="M5.961,13.585c5.672,0,11.344-.425,17.015,0,4.793.369,7.4,4.027,10.947,7.175,2.637,2.382,14.52,10.011,9.614,14.548S30.179,29.183,27.344,26.8c-1.219-1.021-3.772,2.269-2.524,3.318,4.169,3.517,11.344,12.677,17.5,9.529a8.933,8.933,0,0,0,2.836-14.491c-3.091-3.063-6.551-5.842-9.784-8.735a34.428,34.428,0,0,0-6.693-5.785C23.2,8.084,13.9,10.012,7.889,10.012,6.358,10.012,4.4,13.585,5.961,13.585Z" transform="translate(729.892 2639.307)" fill="#6bf2be"/>
    <path id="Tracé_21" data-name="Tracé 21" d="M5.312,24.489C13.82,29.367,22.328,35.634,32.48,35.833c10.975.312,23.425,1.475,34.286,0a9.273,9.273,0,0,0,6.267-14.18c-3.885-5.87-21.525-3.6-27.707-3.942-1.928-.142-4.481,4.4-2.411,4.509,6.693.4,16.789-1.021,22.971,1.361,1.957.766,6.126,5.672,3.687,7.685-1.588,1.276-9.5,0-11.344,0-8.026,0-16.335.624-24.36,0-9.33-.709-17.3-6.664-25.24-11.145C6.787,19.1,3.752,23.383,5.454,24.347Z" transform="translate(729.094 2654.437)" fill="#6bf2be"/>
    <path id="Tracé_22" data-name="Tracé 22" d="M25.593,17.981l-5.672-.2-.4,2.836L36.794,2.951l-1.843.539L52.959,21.384,55.171,17.9H48.677a2.836,2.836,0,0,0-2.552,2.836V31.111l2.552-2.836H29.988a14.35,14.35,0,0,1-3.488,0c-1.5-.425,0,1.248-.312-.482a41.205,41.205,0,0,1,0-9.16c0-1.928-3.148.709-3.148,2.155V31.168c0,.255.284.709.6.709H46.72a2.836,2.836,0,0,0,2.552-2.836V18.718L46.72,21.554h6.466c1.276,0,3.46-2.269,2.24-3.488L37.418.228c-.482-.482-1.5.2-1.843.539l-17.242,17.7c-.369.369-1.9,2.836-.425,2.836l5.672.227C25.2,21.668,27.209,18.038,25.593,17.981Z" transform="translate(751.721 2622.32)" fill="#6bf2be"/>
    <path id="Tracé_23" data-name="Tracé 23" d="M30.681,15.388H25.009l.624.709V12.552c0-.4-.2-1.5,0-1.843s.879,0,1.191.2c1.616.652,1.3,2.5,1.3,3.857v3.573c0,1.021,1.248.709,1.758.369A3.233,3.233,0,0,0,31.305,16.1c0-3.2.936-9.784-4.311-8.961s-4.566,7.288-4.566,11.344c0,.255.284.709.624.709h5.672A2.836,2.836,0,0,0,30.993,17.6C31.192,17.118,31.674,15.388,30.681,15.388Z" transform="translate(761.124 2635.178)" fill="#6bf2be"/>
    <rect id="Rectangle_93" data-name="Rectangle 93" width="144" height="144" transform="translate(684 2593)" fill="none"/>
  </g>
</svg>
