<svg xmlns="http://www.w3.org/2000/svg" width="195.214" height="105.966" viewBox="0 0 195.214 105.966">
  <g id="Groupe_69" data-name="Groupe 69" transform="translate(-81 -72)">
    <path id="Tracé_1" data-name="Tracé 1" d="M230.651,194.881a14.991,14.991,0,0,1-2.3,5.968,47.361,47.361,0,0,0-3.35,7.267c-1.546,4.439-2.6,9.018-1.151,13.681a18.815,18.815,0,0,0,2.435,4.64,6.283,6.283,0,0,0,3.523,2.456c2.587.8,5.126,1.226,7.772.253a17.669,17.669,0,0,0,8.267-5.759,29.578,29.578,0,0,0,6.02-17.857c.207-8.741-2.082-16.893-5.876-24.722-.652-1.346-1.267-2.707-2.007-4.291-.849,1.035-1.619,1.895-2.3,2.818-1.355,1.846-2.623,3.764-4.619,5.043-1.683,1.077-3.433,1.519-5.351.472a2.293,2.293,0,0,1-1.413-1.8c-.046-.4-.171-.8-.3-1.376a6.064,6.064,0,0,1-6.1,1.165,5.923,5.923,0,0,1-4.255-4.676c-.878,1.337-1.631,2.466-2.366,3.606a4.949,4.949,0,0,1-6.642,1.88c-1.029-.5-1.794-1.194-1.636-2.442a28.432,28.432,0,0,1,.54-3.668,41.887,41.887,0,0,1,2.012-6.388,9.671,9.671,0,0,1,2.951-4.064c1.809-1.232,4.036-.8,5.952.315a4.16,4.16,0,0,1,2.059,4.505,1.21,1.21,0,0,0,.447,1.408,1.4,1.4,0,0,1,.474.863c.155,1.169.164,2.359.371,3.517.185,1.039.556,2.047.879,3.19a9.217,9.217,0,0,0,3.507-2.635c.948-1.159,1.906-2.311,2.827-3.489a5.634,5.634,0,0,0,.711-1.239c1.446-3.362,2.9-6.759,5.58-9.376,2.558-2.5,5.977-2.551,8,.751a12.555,12.555,0,0,1,1.516,6.25c.022.52-.523,1.063-.89,1.751.152,1.544,1.711,1.807,3.12,2.414.354-4.594,2.768-8.036,6.227-10.848,1.281-1.042,4.565-1.553,5.692.2a8.143,8.143,0,0,0,.727.778c1.7,1.991,1.605,3.88-.408,5.6-1.518,1.3-3.132,2.488-4.738,3.681-1.356,1.006-2.763,1.946-4.3,3.025a11.459,11.459,0,0,0,1.354,1.892,1.853,1.853,0,0,0,2.114.154,33.683,33.683,0,0,0,10.577-7.838c.885-.909,1.394-2.172,2.3-3.053,3.129-3.043,6.361-6.006,10.555-7.65,2.419-.948,4.338.48,5.535,2.274.212.318-.093.962-.159,1.456-.479-.079-1.067-.014-1.418-.263-1.341-.948-1.323-1-2.71-.2-3.362,1.95-6.68,3.958-9.046,7.1-.439.583-.831,1.2-1.419,2.055,1.9.346,3.59.612,5.263.975a16.374,16.374,0,0,1,4.113,1.147,2.248,2.248,0,0,0,2.41-.262,22.486,22.486,0,0,0,2.8-2.026c1.447-1.095,2.9-2.185,4.318-3.312a1.377,1.377,0,0,0,.392-.813q1.1-6.745,2.171-13.494a4.15,4.15,0,0,0,0-.456c-1.041.249-2.057.418-3.021.737-3.688,1.219-7.36,2.485-11.036,3.736a2.773,2.773,0,0,1-3.224-.69c-.845-.926-.78-1.536.326-2.086a14.673,14.673,0,0,1,2.081-.844c3.135-1,6.267-2.012,9.424-2.944,1.75-.517,3.539-.914,5.324-1.309.594-.131.92-.358,1-.968.218-1.706.422-3.416.741-5.1a6.818,6.818,0,0,1,.852-2.116,1.935,1.935,0,0,1,2.233-.833,1.573,1.573,0,0,1,1.225,1.752,25.581,25.581,0,0,1-.478,3.192c-.167.872-.415,1.729-.673,2.776,1.607-.189,3.056-.357,4.5-.531a30.928,30.928,0,0,1,11.34.309,16.1,16.1,0,0,1,2.769,1.193,1.121,1.121,0,0,1,.6,1.617c-1.385-.241-2.775-.454-4.152-.73-2.979-.6-5.881.1-8.793.485-2.008.267-3.991.715-5.984,1.087a1.036,1.036,0,0,0-.962.987c-.729,4.627-1.508,9.247-2.288,13.866a116.822,116.822,0,0,0-1.506,16.176c-.106,3.781-.4,7.616.547,11.338a17.991,17.991,0,0,0,1.871,3.834c.246.457.66.579,1.132.147.16-.146.585-.274.664-.2a1.1,1.1,0,0,1,.276.734c-.008,1.05-.561,1.537-1.617,1.779a3.754,3.754,0,0,1-4.266-1.768,12.328,12.328,0,0,1-2-6.032,86.819,86.819,0,0,1,.1-16.425,29.415,29.415,0,0,0,.133-4.673c-1.645,1.4-3.3,2.781-4.918,4.2a.8.8,0,0,0-.059.733c1.33,3.045.525,5.308-2.426,7.937a18.61,18.61,0,0,1-3.475,2.26,3.915,3.915,0,0,1-5.165-1,3.184,3.184,0,0,1,.043-4.484c1.481-1.888,3.183-3.613,4.907-5.543a24.022,24.022,0,0,0-3.372-.685,11.934,11.934,0,0,1-6.391-2.3c-1.563,1.38-3.074,2.842-4.723,4.135a29.568,29.568,0,0,1-4.643,3.106c-2.74,1.406-5.22.774-7.151-1.593-.486-.6-.83-1.3-1.311-1.9a7.214,7.214,0,0,0-1.081-.919l-.158.2c.973,2.457,2.009,4.892,2.907,7.374a56.306,56.306,0,0,1,3.41,22.937c-.545,8.466-3.809,15.831-10.731,21.134a16.2,16.2,0,0,1-15.662,2.776,11.345,11.345,0,0,1-5.93-4.863,16.733,16.733,0,0,1-2.548-10.584c.123-2.31.677-4.594.93-6.9.271-2.473,1.468-4.623,2.477-6.812a11.485,11.485,0,0,1,2.744-4.368,21.129,21.129,0,0,0,2.694-3.539C229.334,194.667,229.863,194.262,230.651,194.881Zm12.955-22.969c-.2-1.11-.321-2.122-.572-3.1a16.111,16.111,0,0,0-.911-2.57c-.218-.487-.67-.575-1.116-.164a11,11,0,0,0-2.025,1.92,57.693,57.693,0,0,0-3.915,6.9,33.762,33.762,0,0,0-1.577,5.769.831.831,0,0,0,.312.686c.118.088.5-.017.663-.15a12.614,12.614,0,0,0,1.975-1.706c1.375-1.658,2.622-3.416,3.984-5.085C241.265,173.381,242.031,172.216,243.605,171.912Zm-25.284-3.169c-2.719,1.209-5.991,9.309-4.944,11.825,1.47-2.043,2.874-4.075,4.374-6.037a3.262,3.262,0,0,0,.8-2.349C218.458,171.073,218.4,169.96,218.321,168.743Zm34.09,4.511.287.208a50.389,50.389,0,0,0,4.376-3.03,19.859,19.859,0,0,0,2.661-3.129c.39-.5.214-1-.5-.913a4.336,4.336,0,0,0-2.092.643,17.5,17.5,0,0,0-2.994,2.986A21.765,21.765,0,0,0,252.411,173.254Zm27.687,7.733c-1.565,1.6-3.666,2.719-4.667,4.924A7.369,7.369,0,0,0,280.1,180.987Z" transform="translate(-91.657 -55.267)"/>
    <path id="Tracé_2" data-name="Tracé 2" d="M179.832,125.045c2.593,0,4.927-.134,7.238.028,4.6.321,9.106,1.083,13.235,3.256a13.412,13.412,0,0,1,5.332,4.68,8.455,8.455,0,0,1,1.113,5.152,18.74,18.74,0,0,1-.422,3.028,12.1,12.1,0,0,1-2.9,5.039c-.1.122-.322.194-.354.321-.467,1.872-2.233,2.858-3.207,4.411-.944,1.5-2.542,2.61-3.776,3.959-3.168,3.464-7.015,6.148-10.83,8.844-2.251,1.589-4.735,2.869-7.136,4.252-1.069.616-2.184,1.159-3.3,1.7a2.007,2.007,0,0,1-.983.219c-.738-.058-2.363,1.03-2.386,1.756-.079,2.45-.158,4.9-.129,7.353.032,2.837.086,5.679.3,8.507.2,2.518.629,5.019.957,7.527.033.253.079.5.1.758.183,2.829-1.359,4.121-4.2,3.481a.927.927,0,0,1-.49-.663c-.415-2.8-.977-5.6-1.142-8.422-.328-5.6-.431-11.211-.629-16.818-.008-.217-.039-.433-.064-.71-2.823.27-5.645.97-8.313-.432-.326-.171-.5-.614-.909-1.139,1.482-.117,2.716-.165,3.935-.323,1.588-.206,3.163-.5,4.743-.755.549-.091.764-.366.829-.958.412-3.7.772-7.421,1.383-11.1.516-3.1,1.4-6.144,2.025-9.231.5-2.5.847-5.027,1.3-7.536.2-1.1.5-2.174.718-3.266.578-2.864,1.138-5.731,1.74-8.774a9.443,9.443,0,0,0-1.15.26c-2.226.841-4.478,1.625-6.657,2.571a9.881,9.881,0,0,0-4.725,4.418,3.574,3.574,0,0,1-2.694,1.3c-.66.006-1.644-.943-1.9-1.661-.205-.581.3-1.575.77-2.177a16.7,16.7,0,0,1,7.537-5.183c2.8-1.048,5.688-1.9,8.561-2.762a1.622,1.622,0,0,0,1.286-1.222c.337-1.229.683-2.459,1.1-3.664.352-1.022,2.277-1.731,3.518-1.364,1.046.31,1.479,1.329,1.159,2.681C180.227,123.163,180.072,123.939,179.832,125.045ZM171.655,167.7l.292.248c1.224-.565,2.466-1.1,3.666-1.706,1.477-.749,2.918-1.563,4.373-2.351a3.249,3.249,0,0,0,.494-.306c4.446-3.571,9.042-6.959,12.909-11.184,3.495-3.819,6.752-7.713,8.138-12.781a6.708,6.708,0,0,0-2.378-7.55,15.782,15.782,0,0,0-4.2-2.41c-4.873-1.835-9.991-1.839-15.122-1.626-.6.025-.693.345-.782.761-.869,4.08-1.787,8.152-2.593,12.244q-2.1,10.69-4.085,21.4C172.046,164.182,171.889,165.95,171.655,167.7Z" transform="translate(-75.434 -47.615)"/>
    <path id="Tracé_3" data-name="Tracé 3" d="M353.5,173.636a72.9,72.9,0,0,1-9.718,13.178,6.721,6.721,0,0,1-4.739,2.238c-2.809.02-4.682-1.558-4.738-4.414a68.785,68.785,0,0,1,.6-7.306c.109-1.237.2-2.474.317-3.709.153-1.623.65-1.966,2.32-1.632a8.894,8.894,0,0,0,1.35.247c.679.029.861.476.619.892-.951,1.632-.727,3.465-1.034,5.2a17.706,17.706,0,0,0-.3,6.744c.065.311.119.626.209.932.164.55.528.774,1,.354a34.137,34.137,0,0,0,3.233-3.031c2.192-2.524,4.278-5.135,6.4-7.716.368-.448.685-.937,1.075-1.365a3.483,3.483,0,0,1,.746-.479c.225-.143.534-.24.657-.443.564-.923.8-.954,1.53-.114C353.109,173.308,353.216,173.385,353.5,173.636Z" transform="translate(-130.351 -64.751)"/>
    <path id="Tracé_4" data-name="Tracé 4" d="M330.707,263.646h-1.126V244.569l-.121-.036c-.334,1.244-.677,2.485-1,3.731-1.253,4.842-2.492,9.688-3.769,14.524-.084.319-.436.571-.664.853-.238-.272-.612-.509-.694-.819C321.8,257,320.3,251.17,318.79,245.342c-.067-.261-.164-.515-.312-.971v19.2h-1.1v-22.6c1.468-.243,1.463-.241,1.783,1.014q2.284,8.984,4.577,17.966c.055.213.15.417.286.79.689-2.639,1.345-5.122,1.983-7.61q1.425-5.555,2.829-11.114c.328-1.294.325-1.3,1.87-1.055Z" transform="translate(-125.126 -87.364)"/>
    <path id="Tracé_5" data-name="Tracé 5" d="M292.857,240.97c1.465-.216,1.461-.215,1.782,1.05q2.284,8.983,4.575,17.964c.047.183.129.357.272.741.572-2.183,1.1-4.177,1.616-6.175q1.6-6.2,3.188-12.4c.351-1.368.346-1.369,1.884-1.216v22.726l-1.1.048V244.432l-.133-.027c-.6,2.319-1.213,4.638-1.812,6.959-.995,3.855-1.973,7.714-3,11.563-.075.28-.448.484-.682.723-.22-.255-.566-.478-.642-.769-1.533-5.822-3.035-11.652-4.546-17.48a1.991,1.991,0,0,0-.359-.762v18.949h-1.051Z" transform="translate(-117.555 -87.372)"/>
    <path id="Tracé_6" data-name="Tracé 6" d="M367.747,251.851a4.86,4.86,0,0,1,2.294,3.783,9.489,9.489,0,0,1-.538,5.445,3.709,3.709,0,0,1-3.264,2.541c-1.694.085-3.4.019-5.158.019V240.747c1.837.092,3.665.093,5.466.309a2.99,2.99,0,0,1,2.289,1.8,8.421,8.421,0,0,1,.143,7.3A10.176,10.176,0,0,1,367.747,251.851Zm-5.473,10.123a3.274,3.274,0,0,0,.383.057c.918,0,1.835.019,2.753,0a3.031,3.031,0,0,0,3.12-2.153,7.422,7.422,0,0,0,.11-4.872,2.868,2.868,0,0,0-2.605-2.267c-1.229-.086-2.47-.017-3.76-.017Zm-.013-19.442v8.516c1.049,0,2.059.024,3.066-.006a2.755,2.755,0,0,0,2.788-2,7.144,7.144,0,0,0,.028-4.5,2.693,2.693,0,0,0-2.583-1.993C364.49,242.473,363.412,242.533,362.261,242.533Z" transform="translate(-138.619 -87.334)"/>
    <path id="Tracé_7" data-name="Tracé 7" d="M430.945,253.771c1.173,3.275,2.329,6.506,3.492,9.753-.909.35-1.375.149-1.672-.737-.882-2.629-1.871-5.223-2.767-7.847a.947.947,0,0,0-1.109-.776c-1.008.05-2.02.013-3.124.013V263.6l-1.189.068V240.734a55.175,55.175,0,0,1,5.845.355,3.8,3.8,0,0,1,2.811,2.829,10.392,10.392,0,0,1,.135,6.67A5.3,5.3,0,0,1,430.945,253.771Zm-5.23-1.288c1.158,0,2.207-.038,3.252.009a2.794,2.794,0,0,0,2.84-1.657,7.435,7.435,0,0,0,.1-6.463,2.762,2.762,0,0,0-2.267-1.78,39.087,39.087,0,0,0-3.926-.031Z" transform="translate(-158.223 -87.33)"/>
    <path id="Tracé_8" data-name="Tracé 8" d="M351.877,252.253a18.865,18.865,0,0,1-1.255,8.064,8.188,8.188,0,0,1-2,2.762,3.569,3.569,0,0,1-4.892-.279,8.472,8.472,0,0,1-2.4-5.027c-.644-4.344-.825-8.7.481-12.967a8.174,8.174,0,0,1,1.525-2.845,3.839,3.839,0,0,1,6.33.275,11.133,11.133,0,0,1,1.946,5.631C351.778,249.321,351.795,250.791,351.877,252.253Zm-9.862-.817c.151,2.274.179,3.84.378,5.384a7.366,7.366,0,0,0,1.826,4.35,2.834,2.834,0,0,0,4.548-.285,8.458,8.458,0,0,0,1.258-2.768,28.947,28.947,0,0,0,.327-10.263,11.5,11.5,0,0,0-1.584-4.345,2.767,2.767,0,0,0-4.638-.223,6.087,6.087,0,0,0-1.312,2.522C342.4,247.888,342.206,250.012,342.015,251.436Z" transform="translate(-132.369 -87.229)"/>
    <path id="Tracé_9" data-name="Tracé 9" d="M409.635,242.579v8.579h6.373v1.686h-6.384v9.23h7.387v1.6h-8.563v-22.7h8.533v1.6Z" transform="translate(-153.244 -87.41)"/>
    <path id="Tracé_10" data-name="Tracé 10" d="M387.1,262.087h6.811v1.552h-7.963V240.918l1.152-.064Z" transform="translate(-146.296 -87.369)"/>
    <path id="Tracé_11" data-name="Tracé 11" d="M285.592,240.894h1.043v22.788l-1.043.046Z" transform="translate(-115.312 -87.383)"/>
    <path id="Tracé_12" data-name="Tracé 12" d="M379.838,263.659h-1.067V240.9l1.067-.05Z" transform="translate(-144.081 -87.369)"/>
    <path id="Tracé_13" data-name="Tracé 13" d="M401.3,240.893h1.045v22.779H401.3Z" transform="translate(-151.038 -87.382)"/>
    <path id="Tracé_14" data-name="Tracé 14" d="M342.611,162.029a1.308,1.308,0,0,1-1.316,1.194,2.136,2.136,0,0,1-2.253-2.137,2.177,2.177,0,0,1,.912-1.194.921.921,0,0,1,1.35.319Q341.955,161.121,342.611,162.029Z" transform="translate(-131.81 -60.763)"/>
  </g>
</svg>
