<svg xmlns="http://www.w3.org/2000/svg" width="45.036" height="86.695" viewBox="0 0 45.036 86.695">
  <g id="Groupe_66" data-name="Groupe 66" transform="translate(-937.885 -920.879)">
    <path id="Tracé_15" data-name="Tracé 15" d="M52.518,20.5A22.584,22.584,0,0,0,30,43.018V64.411a22.518,22.518,0,0,0,45.036,0V43.018A22.584,22.584,0,0,0,52.518,20.5Zm16.1,43.911a16.1,16.1,0,1,1-32.2,0V43.018a16.1,16.1,0,1,1,32.2,0Z" transform="translate(907.885 900.379)"/>
    <path id="Tracé_16" data-name="Tracé 16" d="M50.353,32.4A3.147,3.147,0,0,0,47.2,35.553v8.67a3.147,3.147,0,0,0,3.153,3.153,3.222,3.222,0,0,0,3.153-3.153v-8.67A3.147,3.147,0,0,0,50.353,32.4Z" transform="translate(910.051 901.878)"/>
    <path id="Tracé_17" data-name="Tracé 17" d="M56.741,85.9l-5.517,5.517L45.708,85.9a3.185,3.185,0,0,0-4.5,4.5l7.769,7.769a3.05,3.05,0,0,0,2.252.9,3.347,3.347,0,0,0,2.252-.9l7.769-7.769a3.185,3.185,0,0,0-4.5-4.5Z" transform="translate(909.179 908.498)"/>
  </g>
</svg>
