<svg xmlns="http://www.w3.org/2000/svg" width="144" height="144" viewBox="0 0 144 144">
  <g id="Groupe_72" data-name="Groupe 72" transform="translate(-1474 -2594)">
    <path id="Tracé_42" data-name="Tracé 42" d="M57.756,76.381H26.147c-2.235,0-11.175,1.437-12.771,0,.479.319.479,0,.319-1.117a30.8,30.8,0,0,1,0-5.428V5.979L11.779,8.054H43.388c2.235,0,11.175-1.437,12.771,0-.479-.319-.479,0-.319,1.117a30.8,30.8,0,0,1,0,5.428V78.456c0,1.277,2.235-.479,2.235-1.6V5.979c0-.16-.16-.479-.319-.479h-44.7A2.077,2.077,0,0,0,11.3,7.575V78.456a.51.51,0,0,0,.479.479h44.7C57.436,78.935,58.873,76.381,57.756,76.381Z" transform="translate(1495.976 2610.796)" fill="#696de0"/>
    <path id="Tracé_43" data-name="Tracé 43" d="M45.974,24.468H23.145a15.386,15.386,0,0,1-3.831,0c-.8-.319.479,1.117.16.16a5.26,5.26,0,0,1,0-2.235V10.739l-2.235,2.554H40.067a15.386,15.386,0,0,1,3.831,0c.8.319-.479-1.117-.16-.16a5.275,5.275,0,0,1,0,2.235V27.022c0,1.756,2.714-.639,2.714-1.916V10.739a.713.713,0,0,0-.479-.639H18.835A2.581,2.581,0,0,0,16.6,12.654V27.022c0,.16.16.639.479.639H44.218C45.655,27.661,47.411,24.468,45.974,24.468Z" transform="translate(1499.137 2613.54)" fill="#696de0"/>
    <path id="Tracé_44" data-name="Tracé 44" d="M27.319,13.287l-5.907,5.907c-.639.639-1.437,1.756-.958,2.714.479.8,1.6.16,2.075-.319l5.907-5.907c.639-.639,1.437-1.756.958-2.714s-1.6-.16-2.075.319Z" transform="translate(1501.349 2614.982)" fill="#696de0"/>
    <path id="Tracé_45" data-name="Tracé 45" d="M32.919,13.287l-5.907,5.907c-.639.639-1.437,1.756-.958,2.714.479.8,1.6.16,2.075-.319l5.907-5.907c.639-.639,1.437-1.756.958-2.714S33.4,12.808,32.919,13.287Z" transform="translate(1504.689 2614.982)" fill="#696de0"/>
    <path id="Tracé_46" data-name="Tracé 46" d="M45.814,38.968H22.986a15.386,15.386,0,0,1-3.831,0c-.8-.319.479,1.117.16.16a5.275,5.275,0,0,1,0-2.235V25.239l-2.075,2.395H40.067a15.385,15.385,0,0,1,3.831,0c.8.319-.479-1.117-.16-.16a5.275,5.275,0,0,1,0,2.235V41.362c0,1.6,2.554-.639,2.554-1.756V25.239c0-.16-.16-.639-.479-.639H18.675A2.418,2.418,0,0,0,16.6,26.995V41.362c0,.16.16.639.479.639H44.218C45.5,42,47.251,38.968,45.814,38.968Z" transform="translate(1499.137 2622.188)" fill="#696de0"/>
    <path id="Tracé_47" data-name="Tracé 47" d="M27.246,27.92,21.34,33.826c-.639.8-.479,2.075.639,1.117l5.907-5.907C28.523,28.4,28.2,26.962,27.246,27.92Z" transform="translate(1501.741 2623.977)" fill="#696de0"/>
    <path id="Tracé_48" data-name="Tracé 48" d="M32.878,27.837l-5.907,5.907c-.319.319-.958,1.117-.639,1.6s.958.16,1.277-.16l5.907-5.907c.319-.319.8-1.117.639-1.6S33.2,27.677,32.878,27.837Z" transform="translate(1504.89 2623.899)" fill="#696de0"/>
    <path id="Tracé_49" data-name="Tracé 49" d="M38.418,55.564H25.168c-.319,0-3.193-.16-2.395.319s.319-1.437.319-2.075V40.239L20.7,42.952h13.25c.319,0,3.193.16,2.395-.319s-.319,1.437-.319,2.235v13.41c0,1.756,2.874-.639,2.874-2.075V40.239a.687.687,0,0,0-.639-.639H22.295A2.759,2.759,0,0,0,19.9,42.314V58.278a.713.713,0,0,0,.479.639H36.343C38.1,58.917,40.015,55.564,38.418,55.564Z" transform="translate(1501.105 2631.134)" fill="#696de0"/>
    <path id="Tracé_50" data-name="Tracé 50" d="M7.738,52.616h97.541c.8,0,1.916-1.916.958-1.916H8.7C7.9,50.7,6.78,52.616,7.738,52.616Z" transform="translate(1493.631 2637.754)" fill="#696de0"/>
    <path id="Tracé_51" data-name="Tracé 51" d="M75.176,35.921c-.958,17.4-26.5,15.326-26.341-1.117A12.541,12.541,0,0,1,61.766,22.511a12.153,12.153,0,0,1,3.352.479A13.987,13.987,0,0,1,75.176,36.24c0,1.437,2.235-.479,2.235-1.6C76.932,25.384,68.79,18.2,59.371,20.116A16.725,16.725,0,0,0,46.6,36.08,15.126,15.126,0,0,0,61.766,51.087H63.2c8.142-.8,13.889-8.142,14.368-15.964C77.57,33.207,75.335,34.8,75.176,35.921Z" transform="translate(1517.029 2619.328)" fill="#696de0"/>
    <path id="Tracé_52" data-name="Tracé 52" d="M57.675,58.9V36.068c0-1.277-2.075.479-2.075,1.437V60.333C55.6,61.77,57.675,59.854,57.675,58.9Z" transform="translate(1522.397 2628.759)" fill="#696de0"/>
    <path id="Tracé_53" data-name="Tracé 53" d="M64.4,33.156l-7.982,4.47c-.639.319-.958,1.916.16,1.277l7.982-4.47c.639-.319.958-1.916-.16-1.277Z" transform="translate(1522.538 2627.201)" fill="#696de0"/>
    <path id="Tracé_54" data-name="Tracé 54" d="M51.288,34.089l7.024,6.865c.958.8,3.033-1.756,2.075-2.714l-7.024-6.865C52.565,30.417,50.33,33.131,51.288,34.089Z" transform="translate(1519.685 2626.108)" fill="#696de0"/>
    <rect id="Rectangle_95" data-name="Rectangle 95" width="144" height="144" transform="translate(1474 2594)" fill="none"/>
  </g>
</svg>
