<svg xmlns="http://www.w3.org/2000/svg" width="144" height="144" viewBox="0 0 144 144">
  <g id="Groupe_71" data-name="Groupe 71" transform="translate(-1080 -2590)">
    <path id="Tracé_24" data-name="Tracé 24" d="M17.15,34.92l.88,6.356,2.193-2.908c-2.345.328-6.4,0-8,2.087s-.152,5.863.176,8.209l2.193-2.908c-2.439.34-6.415,0-8.056,2.169s-.223,5.922.117,8.349l2.181-2.85c-2.5.352-7.036-.117-8.373,2.662s.422,7.271.751,10.015a.8.8,0,0,0,.962.727c2.627-.41,7.189-.211,9.452-1.689,2.029-1.325,3.588-4.48,5-6.344L31.4,39.247l-1.911,1.1C47.077,43.938,60.973,20.32,45.435,8.582S10.994,16.72,19.249,32.61c.8,1.548,3.659-1.489,2.943-2.873-3.624-7.036-2.4-15.972,5.465-19.584A15.186,15.186,0,0,1,48.789,26.1C47.464,34.65,39.15,38.274,31.433,36.656c-.739-.141-1.524.586-1.911,1.1C23.658,45.568,16.4,53.237,11.451,61.669a8.021,8.021,0,0,1-.856,1.173c1.571-1.794,1.173-.751-.762-.657a18.61,18.61,0,0,0-4.62.715,4.691,4.691,0,0,1-1.4.211c-.715-.07.844,1.173.469.141-.575-1.63.281-6.544-.95-7.646-.5-.457-2.7,1.665-1.29,2.193.387.152,1.442-.2,1.853-.258L7.6,57.025a2.979,2.979,0,0,0,2.181-2.908l-.4-3.155a8.127,8.127,0,0,0-.27-1.947c-.539-1.173.786-1.548-.657.387-1.173,1.524-.856.833,1.173.551l3.706-.516a2.99,2.99,0,0,0,2.193-2.908l-.364-2.65c-.235-1.653.2-4.4-1.419-2.263s.387,1.055,2.04.821l3.178-.446a2.99,2.99,0,0,0,2.193-2.908l-.88-6.356c-.281-2.017-3.354.715-3.143,2.193Z" transform="translate(1096.032 2634.902)" fill="#fa7370"/>
    <path id="Tracé_25" data-name="Tracé 25" d="M34.156,15.948c.575.481,1.583,1.794,1.055,2.639s-2.193.258-2.756-.129-1.747-1.853-1.173-2.721,2.345-.188,2.885.211c1.349.926,3.858-2.451,2.533-3.366-5.289-3.635-12.09,5.582-6.766,9.241s11.586-5.265,6.766-9.241C35.458,11.562,32.878,14.9,34.156,15.948Z" transform="translate(1100.873 2636.06)" fill="#fa7370"/>
    <path id="Tracé_26" data-name="Tracé 26" d="M77.422.247C72.262.341,65.953-.621,60.91.7c-6.063,1.642-6.239,7.376-6.121,12.524s-.95,11.61,2.685,15.831c3.835,4.433,8.666,8.3,12.9,12.36,4.444,4.257,8.76,8.748,13.38,12.817,4.28,3.776,8.291,2.345,11.938-1.266,4.48-4.48,9.135-9.018,13.251-13.826,3.588-4.175,3.166-8.3-.563-12.079-5.254-5.312-10.812-10.355-16.195-15.526C88.316,7.834,83.39.88,77.691.247c-1.173-.117-2.7,2.556-1.442,2.7,4.233.469,7.329,4.691,10.237,7.447L99.292,22.657c2.662,2.5,6.18,5.007,8.291,7.951,4.269,5.945-3.776,11.34-7.411,15.128s-8.209,10.941-14.178,6.344c-3.307-2.556-6.2-5.945-9.206-8.819L63.795,30.807c-2.885-2.768-5.945-4.82-6.4-9.053-.622-5.488-2.4-16.113,4.163-18.54,1.935-.727,5.383-.106,7.423-.141l7.54-.129C77.6,2.92,78.981.223,77.422.247Z" transform="translate(1105.488 2634.031)" fill="#fa7370"/>
    <path id="Tracé_27" data-name="Tracé 27" d="M67.2,10.825c.352,3.284-4.4,2.064-4.808-.469-.223-1.384.739-2.146,2.076-2.017A3.1,3.1,0,0,1,67.2,10.825c.328,1.513,2.568-.539,2.345-1.618a4.269,4.269,0,0,0-5.535-3.366,5.863,5.863,0,0,0-3.952,6.086,4.233,4.233,0,0,0,5.383,3.4A5.863,5.863,0,0,0,69.529,9.16C69.376,7.717,67.031,9.734,67.2,10.825Z" transform="translate(1106.403 2635.004)" fill="#fa7370"/>
    <path id="Tracé_28" data-name="Tracé 28" d="M35.6,10.654A30.255,30.255,0,0,1,61.036,4.579c1.313.317,3.237-2.826,1.712-3.19C53.367-.827,42.731,2.058,35.3,8.121c-1.173.926-1.571,4.1.3,2.58Z" transform="translate(1101.961 2634.143)" fill="#fa7370"/>
    <path id="Tracé_29" data-name="Tracé 29" d="M67.54,10.386c-3.3,9.51-35.122,17.191-33.8,3.1.246-2.674-3.272-.141-3.436,1.513-.95,10.155,12.067,10.836,19.279,9.557,8.4-1.489,18.165-6.074,21.108-14.682.985-2.861-2.58-1.243-3.19.516Z" transform="translate(1101.262 2635.466)" fill="#fa7370"/>
    <path id="Tracé_30" data-name="Tracé 30" d="M93.165,28,98.5,22.789c.469-.469,1.173-1.489.762-2.181s-1.349-.129-1.736.258l-5.336,5.207c-.481.457-1.173,1.489-.774,2.181s1.349.129,1.747-.258Z" transform="translate(1111.803 2637.533)" fill="#fa7370"/>
    <path id="Tracé_31" data-name="Tracé 31" d="M77.246,44.818,91.319,31.05c1.278-1.243.751-3.612-.973-1.935L76.273,42.883c-1.267,1.243-.739,3.612.973,1.935Z" transform="translate(1109.087 2638.959)" fill="#fa7370"/>
    <rect id="Rectangle_94" data-name="Rectangle 94" width="144" height="144" transform="translate(1080 2590)" fill="none"/>
  </g>
</svg>
